HIERARCHY
ROOT Hips
{
	OFFSET 0.00000 0.00000 0.00000
	CHANNELS 6 Xposition Yposition Zposition Zrotation Yrotation Xrotation 
	JOINT LHipJoint
	{
		OFFSET 0 0 0
		CHANNELS 3 Zrotation Yrotation Xrotation
		JOINT LeftHip
		{
			OFFSET 1.54859 -1.61379 0.86856
			CHANNELS 3 Zrotation Yrotation Xrotation
			JOINT LeftKnee
			{
				OFFSET 2.25087 -6.18423 0.00000
				CHANNELS 3 Zrotation Yrotation Xrotation
				JOINT LeftAnkle
				{
					OFFSET 2.40328 -6.60297 0.00000
					CHANNELS 3 Zrotation Yrotation Xrotation
					JOINT LeftToe
					{
						OFFSET 0.17435 -0.47901 2.02453
						CHANNELS 3 Zrotation Yrotation Xrotation
						End Site
						{
							OFFSET 0.00000 -0.00000 1.04844
						}
					}
				}
			}
		}
	}
	JOINT RHipJoint
	{
		OFFSET 0 0 0
		CHANNELS 3 Zrotation Yrotation Xrotation
		JOINT RightHip
		{
			OFFSET -1.54669 -1.61379 0.86856
			CHANNELS 3 Zrotation Yrotation Xrotation
			JOINT RightKnee
			{
				OFFSET -2.28132 -6.26789 0.00000
				CHANNELS 3 Zrotation Yrotation Xrotation
				JOINT RightAnkle
				{
					OFFSET -2.51636 -6.91365 0.00000
					CHANNELS 3 Zrotation Yrotation Xrotation
					JOINT RightToe
					{
						OFFSET -0.15124 -0.41552 2.21090
						CHANNELS 3 Zrotation Yrotation Xrotation
						End Site
						{
							OFFSET -0.00000 -0.00000 1.13399
						}
					}
				}
			}
		}
	}
	JOINT lowerback
	{
		OFFSET 0 0 0
		CHANNELS 3 Zrotation Yrotation Xrotation
		JOINT Chest
		{
			OFFSET -0.04287 2.26161 -0.25690
			CHANNELS 3 Zrotation Yrotation Xrotation
			JOINT Chest2
			{
				OFFSET 0.02248 2.28395 -0.10140
				CHANNELS 3 Zrotation Yrotation Xrotation
				JOINT lowerneck
				{
					OFFSET 0 0 0
					CHANNELS 3 Zrotation Yrotation Xrotation
					JOINT Neck
					{
						OFFSET -0.11644 1.38496 0.11345
						CHANNELS 3 Zrotation Yrotation Xrotation
						JOINT Head
						{
							OFFSET 0.29383 1.36600 0.06642
							CHANNELS 3 Zrotation Yrotation Xrotation
							End Site
							{
								OFFSET 0.11075 1.41395 -0.00294
							}
						}
					}
				}
				JOINT LeftCollar
				{
					OFFSET 0 0 0
					CHANNELS 3 Zrotation Yrotation Xrotation
					JOINT LeftShoulder
					{
						OFFSET 3.51628 0.59542 -0.30346
CHANNELS 3 Zrotation Xrotation Yrotation
						JOINT LeftElbow
						{
OFFSET 0 -4.764050 0.000000
CHANNELS 3 Zrotation Xrotation Yrotation
							JOINT LeftWrist
							{
OFFSET 0 -3.137590 -0.000000
CHANNELS 3 Zrotation Xrotation Yrotation
								JOINT lhand
								{
									OFFSET 0 0 0
CHANNELS 3 Zrotation Xrotation Yrotation
									JOINT LFingers
									{
OFFSET 0 -0.732260 -0.000000
CHANNELS 3 Zrotation Xrotation Yrotation
										End Site
										{
OFFSET 0 -0.590370 -0.000000
										}
									}
								}
								JOINT LThumb
								{
OFFSET 0 0.000000 0.000000
CHANNELS 3 Zrotation Xrotation Yrotation
									End Site
									{
OFFSET 0 -0.599380 0.599380
									}
								}
							}
						}
					}
				}
				JOINT RightCollar
				{
					OFFSET 0 0 0
					CHANNELS 3 Zrotation Yrotation Xrotation
					JOINT RightShoulder
					{
						OFFSET -3.30990 0.84213 -0.36430
CHANNELS 3 Zrotation Xrotation Yrotation
						JOINT RightElbow
						{
OFFSET 0 -5.101610 -0.000000
CHANNELS 3 Zrotation Xrotation Yrotation
							JOINT RightWrist
							{
OFFSET 0 -3.232670 -0.000000
CHANNELS 3 Zrotation Xrotation Yrotation
								JOINT rhand
								{
									OFFSET 0 0 0
CHANNELS 3 Zrotation Xrotation Yrotation
									JOINT RFingers
									{
OFFSET 0 -0.702000 -0.000000
CHANNELS 3 Zrotation Xrotation Yrotation
										End Site
										{
OFFSET 0 -0.565970 -0.000000
										}
									}
								}
								JOINT RThumb
								{
OFFSET 0 0.000000 0.000000
CHANNELS 3 Zrotation Xrotation Yrotation
									End Site
									{
OFFSET 0 -0.574610 0.574610
									}
								}
							}
						}
					}
				}
			}
		}
	}
}
MOTION
Frames: 8
Frame Time: 0.008333333333333333
-34.322700 14.695900 11.489100 -165.244000 75.391900 -154.163000 0.000000 0.000000 0.000000 -5.447400 10.794600 -46.743700 15.855800 19.583200 77.801800 1.394700 -3.582600 -21.441000 0.055800 -1.524200 -4.192400 0.000000 0.000000 0.000000 9.199100 -3.733400 -12.014800 -3.814100 -11.908900 35.410400 -2.821400 -0.028700 -31.866700 -4.214800 12.440900 -37.310100 3.020600 0.215200 24.634500 4.976500 2.340300 10.423900 3.036800 1.585500 -2.308500 -7.603000 -1.134100 -12.235100 8.955900 1.151900 -15.966000 4.029100 1.236900 -2.845700 -0.000000 -0.000000 0.000000 0.840000 16.952600 -43.078100 18.618800 -28.942300 4.845000 27.381600 -11.626700 -28.626700 0.000000 0.000000 0.000000 -7.125000 0.000000 0.000000 -3.947700 61.515700 1.588500 -0.000000 -0.000000 0.000000 -11.430200 -32.780200 55.289100 -99.802300 -59.633800 -68.478600 -35.774800 6.630000 -31.572600 0.000000 0.000000 0.000000 7.125000 0.000000 -0.000000 -2.275600 -7.136700 -2.542500
-34.284104 14.679837 11.445555 -164.623185 75.353075 -153.625544 0.000000 0.000000 0.000000 -4.886840 10.821891 -47.124753 15.895043 19.591079 77.918807 1.411181 -3.491400 -21.587963 0.052527 -1.477801 -4.064583 0.000000 0.000000 0.000000 9.212308 -3.883446 -11.573150 -3.738582 -11.802969 35.040081 -2.817898 -0.013132 -31.841845 -4.260438 12.498794 -37.520667 3.325298 0.298292 24.903418 4.813094 2.531797 10.503186 2.631767 1.696188 -2.335411 -7.647154 -1.270938 -12.013114 9.289907 1.020429 -16.223728 4.141996 1.166254 -2.940935 0.000000 0.000000 0.000000 1.395269 17.486630 -43.302788 18.246083 -28.466850 4.668195 27.344831 -11.177932 -28.962458 0.000000 0.000000 0.000000 -7.125000 0.000000 0.000000 -4.159561 61.857966 1.710341 0.000000 0.000000 0.000000 -11.241063 -33.281495 54.880375 -96.747366 -59.768659 -65.836883 -36.297944 6.694365 -31.897281 0.000000 0.000000 0.000000 7.125000 0.000000 0.000000 -2.481790 -7.668142 -2.795698
-34.245507 14.663774 11.402011 -164.002371 75.314251 -153.088088 0.000000 0.000000 0.000000 -4.326279 10.849183 -47.505806 15.934287 19.598958 78.035814 1.427663 -3.400200 -21.734926 0.049253 -1.431401 -3.936766 0.000000 0.000000 0.000000 9.225516 -4.033492 -11.131500 -3.663064 -11.697039 34.669762 -2.814396 0.002436 -31.816989 -4.306076 12.556689 -37.731234 3.629996 0.381385 25.172336 4.649687 2.723294 10.582472 2.226734 1.806877 -2.362322 -7.691307 -1.407776 -11.791128 9.623913 0.888958 -16.481455 4.254892 1.095609 -3.036169 0.000000 0.000000 0.000000 1.950539 18.020660 -43.527477 17.873366 -27.991399 4.491391 27.308061 -10.729164 -29.298215 0.000000 0.000000 0.000000 -7.125000 0.000000 0.000000 -4.371422 62.200233 1.832182 0.000000 0.000000 0.000000 -11.051926 -33.782791 54.471650 -93.692433 -59.903518 -63.195166 -36.821088 6.758731 -32.221962 0.000000 0.000000 0.000000 7.125000 0.000000 0.000000 -2.687979 -8.199583 -3.048896
-34.207294 14.645455 11.358920 -163.445554 75.266401 -152.588947 0.000000 0.000000 0.000000 -3.770714 10.840445 -47.899049 15.959567 19.604028 78.111187 1.443761 -3.344220 -21.872012 0.040701 -1.238175 -3.405135 0.000000 0.000000 0.000000 9.229770 -4.202539 -10.728632 -3.589391 -11.592357 34.305516 -2.801444 -0.076844 -31.768095 -4.381599 12.650258 -38.075048 3.805491 0.496093 25.395278 4.580973 2.930472 10.671124 1.994624 1.920929 -2.366173 -7.867927 -1.545423 -11.582296 9.969698 0.768385 -16.725631 4.395076 1.037152 -3.125714 0.000000 0.000000 0.000000 2.344989 18.532809 -43.731731 17.515236 -27.530196 4.323795 27.325684 -10.274280 -29.570996 0.000000 0.000000 0.000000 -7.125000 0.000000 0.000000 -4.487825 62.490676 1.909423 0.000000 0.000000 0.000000 -11.024544 -34.277658 53.988269 -90.553904 -59.964601 -60.480114 -37.245027 6.695227 -32.623583 0.000000 0.000000 0.000000 7.125000 0.000000 0.000000 -2.817584 -8.780918 -3.218073
-34.169726 14.623341 11.316594 -162.996406 75.203368 -152.154262 0.000000 0.000000 0.000000 -3.223552 10.771094 -48.312798 15.961356 19.604370 78.116516 1.459215 -3.347494 -21.992483 0.023268 -0.797933 -2.194147 0.000000 0.000000 0.000000 9.218960 -4.403552 -10.391009 -3.518822 -11.489776 33.951488 -2.772592 -0.315692 -31.678760 -4.507399 12.803844 -38.643031 3.763621 0.663991 25.540871 4.671564 3.164029 10.775532 2.053432 2.040638 -2.331231 -8.267403 -1.684431 -11.395595 10.335297 0.666146 -16.947008 4.581169 0.999203 -3.205685 0.000000 0.000000 0.000000 2.468886 19.008145 -43.901609 17.181648 -27.092961 4.171694 27.434812 -9.809107 -29.737828 0.000000 0.000000 0.000000 -7.125000 0.000000 0.000000 -4.443633 62.693935 1.911631 0.000000 0.000000 0.000000 -11.269292 -34.761711 53.379292 -87.274739 -59.901568 -57.641685 -37.502070 6.416603 -33.154644 0.000000 0.000000 0.000000 7.125000 0.000000 0.000000 -2.818345 -9.446191 -3.245897
-34.132157 14.601226 11.274267 -162.547257 75.140335 -151.719578 0.000000 0.000000 0.000000 -2.676390 10.701742 -48.726548 15.963145 19.604713 78.121844 1.474669 -3.350767 -22.112954 0.005835 -0.357691 -0.983158 0.000000 0.000000 0.000000 9.208150 -4.604565 -10.053386 -3.448252 -11.387195 33.597460 -2.743740 -0.554540 -31.589426 -4.633198 12.957430 -39.211013 3.721751 0.831889 25.686463 4.762155 3.397586 10.879940 2.112240 2.160348 -2.296289 -8.666879 -1.823438 -11.208894 10.700897 0.563908 -17.168385 4.767261 0.961254 -3.285656 0.000000 0.000000 0.000000 2.592782 19.483481 -44.071486 16.848060 -26.655726 4.019592 27.543939 -9.343934 -29.904660 0.000000 0.000000 0.000000 -7.125000 0.000000 0.000000 -4.399442 62.897194 1.913838 0.000000 0.000000 0.000000 -11.514040 -35.245764 52.770315 -83.995574 -59.838535 -54.803256 -37.759112 6.137978 -33.685706 0.000000 0.000000 0.000000 7.125000 0.000000 0.000000 -2.819106 -10.111464 -3.273722
-34.090842 14.583879 11.233218 -161.948543 75.102787 -151.109785 0.000000 0.000000 0.000000 -2.139020 10.769384 -49.162292 15.943592 19.600798 78.063572 1.489725 -3.288680 -22.241485 0.001088 -0.145006 -0.398446 0.000000 0.000000 0.000000 9.256258 -4.673466 -9.668538 -3.366330 -11.264180 33.177759 -2.712532 -0.754904 -31.475286 -4.708112 13.046876 -39.544997 3.686380 1.005236 25.723557 4.810402 3.629838 11.045650 2.127910 2.283633 -2.139367 -9.106598 -1.954471 -11.206724 11.118745 0.490334 -17.272011 4.977789 0.945385 -3.301658 0.000000 0.000000 0.000000 2.797138 19.865984 -44.240086 16.622886 -26.356961 3.918917 27.702194 -8.964271 -30.036102 0.000000 0.000000 0.000000 -7.125000 0.000000 0.000000 -4.275813 63.077095 1.877278 0.000000 0.000000 0.000000 -11.667629 -35.862723 52.121804 -80.304407 -59.558447 -51.621394 -38.239482 6.023195 -33.941162 0.000000 0.000000 0.000000 7.125000 0.000000 0.000000 -3.006272 -10.565869 -3.512812
-34.048249 14.568159 11.192604 -161.298800 75.073935 -150.440249 0.000000 0.000000 0.000000 -1.604990 10.883764 -49.605541 15.916757 19.595431 77.983601 1.504646 -3.204293 -22.372766 0.000669 -0.009956 -0.027403 0.000000 0.000000 0.000000 9.324468 -4.697294 -9.267578 -3.280535 -11.134193 32.735652 -2.680521 -0.942138 -31.352684 -4.765663 13.114438 -39.799147 3.653227 1.180442 25.723633 4.844202 3.861644 11.232275 2.128861 2.408139 -1.940828 -9.560048 -2.082783 -11.267511 11.554419 0.426540 -17.335462 5.196653 0.937049 -3.295834 0.000000 0.000000 0.000000 3.028944 20.216815 -44.408250 16.434701 -26.105438 3.835786 27.877210 -8.613783 -30.155469 0.000000 0.000000 0.000000 -7.125000 0.000000 0.000000 -4.125081 63.249028 1.827491 0.000000 0.000000 0.000000 -11.790117 -36.525027 51.459805 -76.472674 -59.204304 -48.322359 -38.796045 5.964311 -34.102589 0.000000 0.000000 0.000000 7.125000 0.000000 0.000000 -3.257034 -10.948330 -3.823980
